<svg width="19" height="16" viewBox="0 0 19 16" fill="none" xmlns="http://www.w3.org/2000/svg">
<path fill-rule="evenodd" clip-rule="evenodd" d="M1.27053 6.59364C6.23172 4.43213 9.53996 3.00714 11.1952 2.31865C15.9214 0.352872 16.9035 0.011396 17.5436 0.000120225C17.6843 -0.00235975 17.9991 0.0325301 18.203 0.197981C18.3752 0.337684 18.4226 0.526403 18.4452 0.658858C18.4679 0.791312 18.4961 1.09305 18.4737 1.32881C18.2176 4.01981 17.1094 10.5501 16.5456 13.5641C16.307 14.8394 15.8373 15.267 15.3825 15.3089C14.3943 15.3998 13.6438 14.6558 12.6866 14.0283C11.1888 13.0464 10.3426 12.4352 8.88868 11.4771C7.20843 10.3699 8.29766 9.76132 9.25523 8.76676C9.50583 8.50648 13.8602 4.54581 13.9445 4.18651C13.9551 4.14158 13.9648 3.97408 13.8653 3.88563C13.7658 3.79719 13.619 3.82743 13.513 3.85149C13.3628 3.88558 10.9699 5.46714 6.33455 8.59616C5.65536 9.06254 5.04017 9.28978 4.48898 9.27787C3.88133 9.26474 2.71248 8.9343 1.84355 8.65184C0.777774 8.3054 -0.0692822 8.12224 0.00447741 7.53388C0.042896 7.22742 0.464915 6.91401 1.27053 6.59364Z" fill="url(#paint0_linear_12_149)"/>
<defs>
<linearGradient id="paint0_linear_12_149" x1="9.24095" y1="0" x2="9.24095" y2="15.2029" gradientUnits="userSpaceOnUse">
<stop stop-color="#2AABEE"/>
<stop offset="1" stop-color="#229ED9"/>
</linearGradient>
</defs>
</svg>
